<svg viewBox="0 0 27 27" xmlns="http://www.w3.org/2000/svg" xml:space="preserve" style="fill-rule:evenodd;clip-rule:evenodd;stroke-linejoin:round;stroke-miterlimit:2"><path d="M5.369 10.625H3.58V4.722H1.193V2.361h7.159v2.361H5.966v3.3l11.709-3.104-.692-2.557h-3.858V0h4.747c.267-.006.528.077.742.236.214.159.367.384.436.639l1.853 6.842-2.305.611-.305-1.129-12.924 3.426Zm-.596 8.264c.633 0 1.24-.249 1.687-.692a2.344 2.344 0 0 0 0-3.339 2.396 2.396 0 0 0-1.687-.691 2.4 2.4 0 0 0-1.688.691 2.352 2.352 0 0 0-.699 1.67c0 .626.252 1.227.699 1.669a2.4 2.4 0 0 0 1.688.692Zm0 2.361a4.797 4.797 0 0 1-3.375-1.383A4.699 4.699 0 0 1 0 16.528c0-1.253.503-2.454 1.398-3.339a4.797 4.797 0 0 1 3.375-1.383c1.266 0 2.48.497 3.375 1.383a4.694 4.694 0 0 1 1.397 3.339 4.698 4.698 0 0 1-1.397 3.339 4.797 4.797 0 0 1-3.375 1.383Zm15.511-2.361a3.6 3.6 0 0 0 2.531-1.037 3.526 3.526 0 0 0 1.049-2.505c0-.939-.378-1.84-1.049-2.504a3.6 3.6 0 0 0-2.531-1.037 3.6 3.6 0 0 0-2.531 1.037 3.524 3.524 0 0 0-1.049 2.504c0 .94.378 1.84 1.049 2.505a3.6 3.6 0 0 0 2.531 1.037Zm0 2.361c-1.582 0-3.1-.622-4.218-1.729a5.87 5.87 0 0 1-1.748-4.174c0-1.565.629-3.067 1.748-4.173a5.992 5.992 0 0 1 4.218-1.729c1.582 0 3.1.621 4.219 1.729a5.867 5.867 0 0 1 1.747 4.173 5.87 5.87 0 0 1-1.747 4.174 6 6 0 0 1-4.219 1.729Z" style="fill:#1d1d1d;fill-rule:nonzero" transform="translate(0 2.571) scale(1.02857)"/></svg>