<?xml version="1.0" encoding="UTF-8" standalone="no"?>
<!DOCTYPE svg PUBLIC "-//W3C//DTD SVG 1.1//EN" "http://www.w3.org/Graphics/SVG/1.1/DTD/svg11.dtd">
<svg width="100%" height="100%" viewBox="0 0 27 27" version="1.1" xmlns="http://www.w3.org/2000/svg" xmlns:xlink="http://www.w3.org/1999/xlink" xml:space="preserve" xmlns:serif="http://www.serif.com/" style="fill-rule:evenodd;clip-rule:evenodd;stroke-linejoin:round;stroke-miterlimit:2;">
    <g transform="matrix(1.028571,0,0,1.028571,0,2.571429)">
        <path d="M5.369,10.625L3.58,10.625L3.58,4.722L1.193,4.722L1.193,2.361L8.352,2.361L8.352,4.722L5.966,4.722L5.966,8.022L17.675,4.918L16.983,2.361L13.125,2.361L13.125,0L17.872,0C18.139,-0.006 18.4,0.077 18.614,0.236C18.828,0.395 18.981,0.62 19.05,0.875L20.903,7.717L18.598,8.328L18.293,7.199L5.369,10.625ZM4.773,18.889C5.406,18.889 6.013,18.64 6.46,18.197C6.908,17.755 7.159,17.154 7.159,16.528C7.159,15.902 6.908,15.301 6.46,14.858C6.013,14.415 5.406,14.167 4.773,14.167C4.14,14.167 3.533,14.415 3.085,14.858C2.638,15.301 2.386,15.902 2.386,16.528C2.386,17.154 2.638,17.755 3.085,18.197C3.533,18.64 4.14,18.889 4.773,18.889ZM4.773,21.25C3.507,21.25 2.293,20.753 1.398,19.867C0.503,18.981 0,17.78 0,16.528C0,15.275 0.503,14.074 1.398,13.189C2.293,12.303 3.507,11.806 4.773,11.806C6.039,11.806 7.253,12.303 8.148,13.189C9.043,14.074 9.545,15.275 9.545,16.528C9.545,17.78 9.043,18.981 8.148,19.867C7.253,20.753 6.039,21.25 4.773,21.25ZM20.284,18.889C21.233,18.889 22.144,18.516 22.815,17.852C23.486,17.187 23.864,16.287 23.864,15.347C23.864,14.408 23.486,13.507 22.815,12.843C22.144,12.179 21.233,11.806 20.284,11.806C19.335,11.806 18.424,12.179 17.753,12.843C17.082,13.507 16.704,14.408 16.704,15.347C16.704,16.287 17.082,17.187 17.753,17.852C18.424,18.516 19.335,18.889 20.284,18.889ZM20.284,21.25C18.702,21.25 17.184,20.628 16.066,19.521C14.947,18.414 14.318,16.913 14.318,15.347C14.318,13.782 14.947,12.28 16.066,11.174C17.184,10.066 18.702,9.445 20.284,9.445C21.866,9.445 23.384,10.066 24.503,11.174C25.622,12.28 26.25,13.782 26.25,15.347C26.25,16.913 25.622,18.414 24.503,19.521C23.384,20.628 21.866,21.25 20.284,21.25Z" style="fill:rgb(29,29,29);fill-rule:nonzero;"/>
    </g>
</svg>
